<?xml version="1.0" encoding="iso-8859-1"?>
<!-- Generator: Adobe Illustrator 19.0.0, SVG Export Plug-In . SVG Version: 6.00 Build 0)  -->
<svg version="1.1" id="Capa_1" xmlns="http://www.w3.org/2000/svg" xmlns:xlink="http://www.w3.org/1999/xlink" x="0px" y="0px"
	 viewBox="0 0 512 512" style="enable-background:new 0 0 512 512;" xml:space="preserve">
<path style="fill:#36569C;" d="M15.011,268.512c-4.479,0-8.909-1.997-11.866-5.811c-5.075-6.547-3.882-15.97,2.665-21.045
	L188.992,99.655c6.55-5.076,15.97-3.881,21.046,2.665c5.075,6.547,3.882,15.97-2.665,21.045L24.19,265.367
	C21.456,267.486,18.22,268.512,15.011,268.512z"/>
<path style="fill:#193359;" d="M496.989,268.512c-3.207,0-6.438-1.024-9.171-3.139L304.379,123.371
	c-6.551-5.071-7.751-14.493-2.68-21.043c5.07-6.55,14.492-7.751,21.043-2.679l183.439,142.002c6.551,5.071,7.751,14.493,2.68,21.043
	C505.905,266.512,501.471,268.512,496.989,268.512z"/>
<path style="fill:#FFE475;" d="M255.872,184.199c-40.081,0-72.689-32.608-72.689-72.689s32.608-72.689,72.689-72.689
	c40.08,0,72.688,32.608,72.688,72.689S295.952,184.199,255.872,184.199z"/>
<path style="fill:#EDF6FF;" d="M497,473.179H15c-8.284,0-15-6.716-15-15V253.512c0-8.284,6.716-15,15-15h482c8.284,0,15,6.716,15,15
	v204.667C512,466.463,505.284,473.179,497,473.179z"/>
<path style="fill:#D6E9FF;" d="M497,238.512H256.182v234.667H497c8.284,0,15-6.716,15-15V253.512
	C512,245.228,505.284,238.512,497,238.512z"/>
<g>
	<path style="fill:#193359;" d="M334.379,370.845c8.284,0,15-6.716,15-15s-6.716-15-15-15h-36.806v-23.401h36.806
		c8.284,0,15-6.716,15-15s-6.716-15-15-15h-51.806c-8.284,0-15,6.716-15,15v106.802c0,8.284,6.716,15,15,15h51.806
		c8.284,0,15-6.716,15-15s-6.716-15-15-15h-36.806v-23.401H334.379z"/>
	<path style="fill:#193359;" d="M439.329,424.248c-5.646,0-10.943-3.201-13.492-8.455l-23.311-48.056v41.509c0,8.284-6.716,15-15,15
		s-15-6.716-15-15V302.445c0-6.99,4.828-13.054,11.642-14.619c6.813-1.565,13.803,1.783,16.854,8.073l23.311,48.056v-41.509
		c0-8.284,6.716-15,15-15s15,6.716,15,15v106.802c0,6.99-4.828,13.054-11.642,14.619
		C441.57,424.123,440.443,424.248,439.329,424.248z"/>
</g>
<g>
	<path style="fill:#36569C;" d="M98.57,424.246c-22.554,0-40.903-18.349-40.903-40.903v-54.996c0-22.554,18.35-40.903,40.903-40.903
		s40.902,18.349,40.902,40.903v54.996C139.472,405.897,121.123,424.246,98.57,424.246z M98.57,317.445
		c-6.012,0-10.903,4.891-10.903,10.903v54.996c0,6.012,4.892,10.903,10.903,10.903s10.902-4.891,10.902-10.903v-54.996
		C109.472,322.336,104.581,317.445,98.57,317.445z"/>
	<path style="fill:#36569C;" d="M177.619,424.246c-8.284,0-15-6.716-15-15V302.445c0-8.284,6.716-15,15-15h25.903
		c22.554,0,40.903,18.349,40.903,40.903v1.595c0,22.554-18.35,40.903-40.903,40.903h-10.903v38.401
		C192.619,417.53,185.904,424.246,177.619,424.246z M192.619,340.845h10.903c6.012,0,10.903-4.891,10.903-10.903v-1.595
		c0-6.012-4.892-10.903-10.903-10.903h-10.903V340.845z"/>
</g>
<path style="fill:#FFB726;" d="M256.182,38.828v145.363c39.937-0.168,72.379-32.704,72.379-72.681S296.119,38.997,256.182,38.828z"
	/>
<g>
</g>
<g>
</g>
<g>
</g>
<g>
</g>
<g>
</g>
<g>
</g>
<g>
</g>
<g>
</g>
<g>
</g>
<g>
</g>
<g>
</g>
<g>
</g>
<g>
</g>
<g>
</g>
<g>
</g>
</svg>
