<?xml version="1.0" encoding="iso-8859-1"?>
<!-- Generator: Adobe Illustrator 19.0.0, SVG Export Plug-In . SVG Version: 6.00 Build 0)  -->
<svg version="1.1" id="Capa_1" xmlns="http://www.w3.org/2000/svg" xmlns:xlink="http://www.w3.org/1999/xlink" x="0px" y="0px"
	 viewBox="0 0 512 512" style="enable-background:new 0 0 512 512;" xml:space="preserve">
<g>
	<path style="fill:#1689FC;" d="M451,46c0,8.399-6.599,15-15,15H76c-8.401,0-15-6.601-15-15c0-8.401,6.599-15,15-15h360
		C444.401,31,451,37.599,451,46z"/>
	<path style="fill:#1689FC;" d="M46,451c-8.291,0-15-6.709-15-15V76c0-8.291,6.709-15,15-15s15,6.709,15,15v360
		C61,444.291,54.291,451,46,451z"/>
	<path style="fill:#1689FC;" d="M451,466c0,8.399-6.599,15-15,15H76c-8.401,0-15-6.601-15-15c0-8.401,6.599-15,15-15h360
		C444.401,451,451,457.599,451,466z"/>
</g>
<path style="fill:#00C8C8;" d="M75,90H15C6.709,90,0,83.291,0,75V15C0,6.709,6.709,0,15,0h60c8.291,0,15,6.709,15,15v60
	C90,83.291,83.291,90,75,90z"/>
<rect x="30" y="30" style="fill:#E1F1FA;" width="30" height="30"/>
<path style="fill:#00C8C8;" d="M75,512H15c-8.291,0-15-6.709-15-15v-60c0-8.291,6.709-15,15-15h60c8.291,0,15,6.709,15,15v60
	C90,505.291,83.291,512,75,512z"/>
<rect x="30" y="452" style="fill:#E1F1FA;" width="30" height="30"/>
<path style="fill:#136EF1;" d="M466,451c-8.291,0-15-6.709-15-15V76c0-8.291,6.709-15,15-15s15,6.709,15,15v360
	C481,444.291,474.291,451,466,451z"/>
<path style="fill:#2864F0;" d="M361,106H151c-8.401,0-15,6.599-15,15v60c0,13.5,16.199,20.099,25.499,10.499L187.301,166H226
	v175.499l-27.599,41.1C191.8,392.8,198.999,406,211,406h90c12.001,0,19.2-13.2,12.599-23.401L286,341.499V166h38.699l25.801,25.499
	c9.301,9.6,25.5,2.701,25.5-10.499v-60C376,112.599,369.401,106,361,106z"/>
<path style="fill:#0053BF;" d="M301,406h-45V106h105c8.401,0,15,6.599,15,15v60c0,13.2-16.199,20.099-25.499,10.499L324.699,166H286
	v175.499l27.599,41.1C320.2,392.8,313.001,406,301,406z"/>
<g>
	<path style="fill:#136EF1;" d="M451,466c0,8.399-6.599,15-15,15H256v-30h180C444.401,451,451,457.599,451,466z"/>
	<path style="fill:#136EF1;" d="M436,61H256V31h180c8.401,0,15,6.599,15,15C451,54.399,444.401,61,436,61z"/>
</g>
<path style="fill:#00A1B2;" d="M497,90h-60c-8.291,0-15-6.709-15-15V15c0-8.291,6.709-15,15-15h60c8.291,0,15,6.709,15,15v60
	C512,83.291,505.291,90,497,90z"/>
<rect x="452" y="30" style="fill:#BFE1FF;" width="30" height="30"/>
<path style="fill:#00A1B2;" d="M497,512h-60c-8.291,0-15-6.709-15-15v-60c0-8.291,6.709-15,15-15h60c8.291,0,15,6.709,15,15v60
	C512,505.291,505.291,512,497,512z"/>
<rect x="452" y="452" style="fill:#BFE1FF;" width="30" height="30"/>
<g>
</g>
<g>
</g>
<g>
</g>
<g>
</g>
<g>
</g>
<g>
</g>
<g>
</g>
<g>
</g>
<g>
</g>
<g>
</g>
<g>
</g>
<g>
</g>
<g>
</g>
<g>
</g>
<g>
</g>
</svg>
