<?xml version="1.0" encoding="iso-8859-1"?>
<!-- Generator: Adobe Illustrator 19.0.0, SVG Export Plug-In . SVG Version: 6.00 Build 0)  -->
<svg version="1.1" id="Capa_1" xmlns="http://www.w3.org/2000/svg" xmlns:xlink="http://www.w3.org/1999/xlink" x="0px" y="0px"
	 viewBox="0 0 512 512" style="enable-background:new 0 0 512 512;" xml:space="preserve">
<path style="fill:#B5EFFF;" d="M512,314.817c0,48.526-39.485,88.01-88.01,88.01H119.014C53.386,402.827,0,349.431,0,283.803
	c0-65.618,53.386-119.014,119.014-119.014c7.721,0,15.392,0.76,22.903,2.23c27.643-36.304,70.378-57.727,116.394-57.847h0.39
	c38.044,0,74.109,14.492,101.572,40.805c22.493,21.553,37.304,49.206,42.825,79.349c6.821-1.66,13.852-2.51,20.892-2.51
	C472.515,226.817,512,266.291,512,314.817z"/>
<path style="fill:#80DBFF;" d="M512,314.817c0,48.526-39.485,88.01-88.01,88.01H258.31V109.173h0.39
	c38.044,0,74.109,14.492,101.572,40.805c22.493,21.553,37.304,49.206,42.825,79.349c6.821-1.66,13.852-2.51,20.892-2.51
	C472.515,226.817,512,266.291,512,314.817z"/>
<g>
	<path style="fill:#549CFF;" d="M150.988,257.387c0-10.088-9.136-17.912-16.994-17.912c-2.522,0-4.52,0.57-6.09,1.741
		l-46.518,30.219l-0.007,0.004c-5.705,3.72-7.737,9.701-7.737,14.059c0,4.356,2.032,10.337,7.744,14.063l46.519,30.22
		c1.57,1.17,3.565,1.739,6.089,1.739c7.858,0,16.994-7.824,16.994-17.912c0-4.646-2.065-8.845-5.361-10.942l-26.503-17.166
		l26.473-17.148C148.922,266.232,150.988,262.032,150.988,257.387z"/>
	<path style="fill:#549CFF;" d="M229.341,190.054c-5.267,0-9.673,2.683-11.762,7.123L153.112,329.6
		c-0.898,1.797-1.393,3.751-1.393,5.502c0,6.876,5.942,14.238,14.789,14.238c5.378,0,10.339-2.89,12.312-7.119l64.65-132.423
		c1.002-2,1.212-4.098,1.212-5.507C244.682,195.774,236.749,190.054,229.341,190.054z"/>
</g>
<path style="fill:#4A7AFF;" d="M315.015,271.435l-46.517-30.219c-1.57-1.171-3.566-1.741-6.091-1.741
	c-7.858,0-16.993,7.824-16.993,17.912c0,4.646,2.065,8.845,5.361,10.942l26.503,17.167l-26.473,17.148
	c-3.325,2.116-5.392,6.316-5.392,10.961c0,10.088,9.135,17.912,16.993,17.912c2.523,0,4.52-0.569,6.09-1.74l46.518-30.219
	l0.007-0.004c5.706-3.721,7.738-9.702,7.738-14.059C322.76,281.14,320.728,275.158,315.015,271.435z"/>
<g>
</g>
<g>
</g>
<g>
</g>
<g>
</g>
<g>
</g>
<g>
</g>
<g>
</g>
<g>
</g>
<g>
</g>
<g>
</g>
<g>
</g>
<g>
</g>
<g>
</g>
<g>
</g>
<g>
</g>
</svg>
