<?xml version="1.0" encoding="iso-8859-1"?>
<!-- Generator: Adobe Illustrator 19.0.0, SVG Export Plug-In . SVG Version: 6.00 Build 0)  -->
<svg version="1.1" id="Capa_1" xmlns="http://www.w3.org/2000/svg" xmlns:xlink="http://www.w3.org/1999/xlink" x="0px" y="0px"
	 viewBox="0 0 512 512" style="enable-background:new 0 0 512 512;" xml:space="preserve">
<path style="fill:#FFB13B;" d="M399.747,143.747c0,48.707-24.844,94.099-65.379,120.515v30.622c0,8.291-6.719,15.021-15.021,15.021
	H192.593c-8.291,0-15.021-6.729-15.021-15.021v-30.662c-40.495-26.416-65.319-71.788-65.319-120.475
	C112.253,64.488,176.732,0.01,255.99,0H256C335.258,0,399.747,64.488,399.747,143.747z"/>
<path style="fill:#FF9500;" d="M399.747,143.747c0,48.707-24.844,94.099-65.379,120.515v30.622c0,8.291-6.719,15.021-15.021,15.021
	H255.99V0H256C335.258,0,399.747,64.488,399.747,143.747z"/>
<path style="fill:#FF7045;" d="M319.637,147.592c-5.868-5.868-15.381-5.868-21.249,0L259.28,186.7l-41.878-41.878
	c-5.865-5.866-15.376-5.866-21.242,0c-5.866,5.866-5.866,15.376,0,21.242l44.824,44.824c-0.003,0.14-0.005,0.281-0.004,0.422v98.595
	h30.041v-92.456l48.616-48.606C325.505,162.973,325.505,153.46,319.637,147.592z"/>
<path style="fill:#F45607;" d="M319.637,168.841l-48.616,48.606v92.456H256V189.98l42.388-42.388c5.868-5.868,15.381-5.868,21.249,0
	C325.505,153.46,325.505,162.973,319.637,168.841z"/>
<path style="fill:#FFB13B;" d="M271.021,466.868v30.111c0,8.301-6.729,15.021-15.021,15.021h-0.01
	c-8.291-0.01-15.011-6.719-15.011-15.021v-30.111c0-8.301,6.719-15.011,15.011-15.021H256
	C264.291,451.848,271.021,458.567,271.021,466.868z"/>
<path style="fill:#FF9500;" d="M271.021,466.868v30.111c0,8.301-6.729,15.021-15.021,15.021h-0.01v-60.152H256
	C264.291,451.848,271.021,458.567,271.021,466.868z"/>
<path style="fill:#B5EFFF;" d="M322.05,365.99v89.062c0,14.239-11.596,25.835-25.835,25.835h-80.43
	c-14.239,0-25.835-11.596-25.835-25.835V365.99H322.05z"/>
<path style="fill:#80DBFF;" d="M322.05,365.99v89.062c0,14.239-11.596,25.835-25.835,25.835H255.99V365.99H322.05z"/>
<path style="fill:#5A6384;" d="M358.38,301.953v71.988c0,12.177-9.914,22.09-22.1,22.09H175.72c-12.187,0-22.1-9.914-22.1-22.09
	v-71.988c0-12.187,9.914-22.09,22.1-22.09h160.56C348.466,279.863,358.38,289.766,358.38,301.953z"/>
<path style="fill:#445175;" d="M358.38,301.953v71.988c0,12.177-9.914,22.09-22.1,22.09h-80.29V279.863h80.29
	C348.466,279.863,358.38,289.766,358.38,301.953z"/>
<g>
</g>
<g>
</g>
<g>
</g>
<g>
</g>
<g>
</g>
<g>
</g>
<g>
</g>
<g>
</g>
<g>
</g>
<g>
</g>
<g>
</g>
<g>
</g>
<g>
</g>
<g>
</g>
<g>
</g>
</svg>
