<?xml version="1.0" encoding="iso-8859-1"?>
<!-- Generator: Adobe Illustrator 19.0.0, SVG Export Plug-In . SVG Version: 6.00 Build 0)  -->
<svg version="1.1" id="Capa_1" xmlns="http://www.w3.org/2000/svg" xmlns:xlink="http://www.w3.org/1999/xlink" x="0px" y="0px"
	 viewBox="0 0 512 512" style="enable-background:new 0 0 512 512;" xml:space="preserve">
<path style="fill:#65B1FC;" d="M496.858,294.899L460.259,221.4c-0.901-63.301-28.801-123.301-76.5-165.3
	c-41.1-36.601-94.2-56.1-148.5-56.1c-9.901,0-19.501,0.599-29.399,1.8C94.259,16.199,10.259,115.199,10.259,232.2v29.399
	c0,74.401,32.701,139.801,90,181.201V497c0,8.399,6.599,15,15,15h210c8.401,0,15-6.601,15-15v-47h45c41.4,0,75-33.6,75-75v-15
	c14.399-1.201,27.001-9,34.799-21.301C503.159,325.199,504.06,309,496.858,294.899z"/>
<path style="fill:#1689FC;" d="M495.058,338.699c-7.798,12.301-20.4,20.1-34.799,21.301v15c0,41.4-33.6,75-75,75h-45v47
	c0,8.399-6.599,15-15,15h-90V0c54.3,0,107.401,19.499,148.5,56.1c47.699,41.999,75.599,101.999,76.5,165.3l36.599,73.499
	C504.06,309,503.159,325.199,495.058,338.699z"/>
<path style="fill:#E1F1FA;" d="M235.259,60c-14.399,0-29.399,2.1-44.7,6c-54.9,14.4-99.9,59.4-114.3,114.3
	c-15.601,58.799,0.3,119.099,42.299,161.4c31.5,31.5,73.2,48.3,116.7,48.3c80.7,0,141.899-55.201,159-120.3
	C423.66,159.899,340.86,60,235.259,60z"/>
<path style="fill:#BFE1FF;" d="M394.259,269.7c-17.1,65.099-78.3,120.3-159,120.3V60C340.86,60,423.66,159.899,394.259,269.7z"/>
<path style="fill:#65B1FC;" d="M164.654,265.605l-30-30c-5.859-5.859-5.859-15.352,0-21.211l30-30
	c5.859-5.859,15.352-5.859,21.211,0c5.859,5.859,5.859,15.352,0,21.211L166.47,225l19.395,19.395c5.859,5.859,5.859,15.352,0,21.211
	C180.005,271.465,170.513,271.465,164.654,265.605z"/>
<path style="fill:#1689FC;" d="M284.654,265.605c-5.859-5.859-5.859-15.352,0-21.211L304.048,225l-19.395-19.395
	c-5.859-5.859-5.859-15.352,0-21.211c5.859-5.859,15.352-5.859,21.211,0l30,30c5.859,5.859,5.859,15.352,0,21.211l-30,30
	C300.005,271.465,290.513,271.465,284.654,265.605z"/>
<path style="fill:#65B1FC;" d="M264.658,168.6l-29.399,117.599l-0.601,2.401c-1.5,6.899-7.8,11.4-14.399,11.4
	c-9.6,0-16.8-9.3-14.399-18.6l29.399-117.601l0.601-2.399c1.8-8.101,9.899-12.9,17.999-10.801
	C261.959,152.399,266.759,160.499,264.658,168.6z"/>
<path style="fill:#1689FC;" d="M264.658,168.6l-29.399,117.599v-122.4l0.601-2.399c1.8-8.101,9.899-12.9,17.999-10.801
	C261.959,152.399,266.759,160.499,264.658,168.6z"/>
<g>
</g>
<g>
</g>
<g>
</g>
<g>
</g>
<g>
</g>
<g>
</g>
<g>
</g>
<g>
</g>
<g>
</g>
<g>
</g>
<g>
</g>
<g>
</g>
<g>
</g>
<g>
</g>
<g>
</g>
</svg>
