<?xml version="1.0" encoding="iso-8859-1"?>
<!-- Generator: Adobe Illustrator 19.0.0, SVG Export Plug-In . SVG Version: 6.00 Build 0)  -->
<svg version="1.1" id="Capa_1" xmlns="http://www.w3.org/2000/svg" xmlns:xlink="http://www.w3.org/1999/xlink" x="0px" y="0px"
	 viewBox="0 0 512 512" style="enable-background:new 0 0 512 512;" xml:space="preserve">
<path style="fill:#E1F1FA;" d="M512,225c0,74.399-61.601,135-136,135H121C54.699,360,0,306.299,0,240
	c0-38.401,19.6-74.401,50.799-96.901C72.1,127.8,96.7,120.3,122.5,120.599C129.699,53.099,186.4,0,256,0
	c57.9,0,108.6,36.899,127.2,90.899C454.9,95.4,512,153.6,512,225z"/>
<path style="fill:#BFE1FF;" d="M512,225c0,74.399-61.601,135-136,135H256V0c57.9,0,108.6,36.899,127.2,90.899
	C454.9,95.4,512,153.6,512,225z"/>
<path style="fill:#0053BF;" d="M381.7,213.199c-5.7-2.401-12.001-1.199-16.199,3.3c-26.4,26.4-72.601,26.4-99.001,0
	C263.8,213.5,259.9,212,256,212s-7.8,1.5-10.499,4.499c-26.4,26.4-72.601,26.4-99.001,0c-4.199-4.499-10.499-5.7-16.199-3.3
	S121,221,121,227v75.899c0,88.5,49.2,168.001,128.401,207.601c2.098,0.899,4.199,1.5,6.599,1.5s4.501-0.601,6.599-1.5
	C341.8,470.9,391,391.399,391,302.899V227C391,221,387.4,215.6,381.7,213.199z"/>
<path style="fill:#05377F;" d="M391,227v75.899c0,88.5-49.2,168.001-128.401,207.601c-2.098,0.899-4.199,1.5-6.599,1.5V212
	c3.9,0,7.8,1.5,10.499,4.499c26.4,26.4,72.601,26.4,99.001,0c4.199-4.499,10.499-5.7,16.199-3.3S391,221,391,227z"/>
<path style="fill:#FFDA45;" d="M326.8,301.399c-2.999-2.699-6.899-4.501-11.1-4.501c-18.6,0-36.599-3.898-53.399-11.699
	c-2.1-0.901-4.2-1.201-6.301-1.201s-4.2,0.3-6.301,1.201c-16.8,7.8-34.799,11.699-53.399,11.699c-4.2,0-8.101,1.802-11.1,4.501
	c-2.701,2.999-4.2,7.2-3.9,11.4c2.699,49.2,26.7,95.099,65.4,125.4c2.701,2.1,6,3.3,9.3,3.3s6.599-1.199,9.3-3.3
	c38.699-30.3,62.701-76.199,65.4-125.4C331,308.599,329.5,304.399,326.8,301.399z"/>
<path style="fill:#FFBC36;" d="M330.7,312.8c-2.699,49.2-26.7,95.099-65.4,125.4c-2.701,2.1-6,3.3-9.3,3.3V284
	c2.1,0,4.2,0.3,6.301,1.201c16.8,7.8,34.799,11.699,53.399,11.699c4.2,0,8.101,1.802,11.1,4.501
	C329.5,304.399,331,308.599,330.7,312.8z"/>
<g>
</g>
<g>
</g>
<g>
</g>
<g>
</g>
<g>
</g>
<g>
</g>
<g>
</g>
<g>
</g>
<g>
</g>
<g>
</g>
<g>
</g>
<g>
</g>
<g>
</g>
<g>
</g>
<g>
</g>
</svg>
